HIERARCHY
ROOT newVegas:Hips
{
	OFFSET 0.000000 96.479958 0.000000
	CHANNELS 6 Xposition Yposition Zposition Xrotation Yrotation Zrotation
	JOINT newVegas:Pelvis
	{
		OFFSET 0.000000 0.000000 0.000000
		CHANNELS 3 Xrotation Yrotation Zrotation
		JOINT newVegas:LeftUpLeg
		{
			OFFSET 18.735201 -5.666702 -4.541200
			CHANNELS 3 Xrotation Yrotation Zrotation
			JOINT newVegas:LeftLeg
			{
				OFFSET -0.021200 -31.938179 0.493100
				CHANNELS 3 Xrotation Yrotation Zrotation
				JOINT newVegas:LeftFoot
				{
					OFFSET 0.021200 -31.938179 -4.336299
					CHANNELS 3 Xrotation Yrotation Zrotation
					JOINT newVegas:LeftToeBase
					{
						OFFSET 0.943001 -26.722000 15.023500
						CHANNELS 3 Xrotation Yrotation Zrotation
						End Site
						{
							OFFSET 0.000000 30.670183 0.000000
						}
					}
				}
				JOINT newVegas:Left_PantLeg
				{
					OFFSET 0.663870 -9.044666 -1.108900
					CHANNELS 3 Xrotation Yrotation Zrotation
					End Site
					{
						OFFSET 1.415995 20.635357 0.000000
					}
				}
			}
		}
		JOINT newVegas:RightUpLeg
		{
			OFFSET -18.735201 -5.666702 -4.541200
			CHANNELS 3 Xrotation Yrotation Zrotation
			JOINT newVegas:RightLeg
			{
				OFFSET 0.018946 -31.938133 0.493100
				CHANNELS 3 Xrotation Yrotation Zrotation
				JOINT newVegas:RightFoot
				{
					OFFSET -0.018946 -31.938126 -4.336299
					CHANNELS 3 Xrotation Yrotation Zrotation
					JOINT newVegas:RightToeBase
					{
						OFFSET -0.943001 -26.722004 15.023500
						CHANNELS 3 Xrotation Yrotation Zrotation
						End Site
						{
							OFFSET 0.000000 30.670187 0.000000
						}
					}
				}
				JOINT newVegas:Right_PantLeg
				{
					OFFSET -0.661674 -9.044716 -1.108900
					CHANNELS 3 Xrotation Yrotation Zrotation
					End Site
					{
						OFFSET -1.415958 20.635269 0.000000
					}
				}
			}
		}
	}
	JOINT newVegas:Spine
	{
		OFFSET 0.000000 10.199997 -0.299500
		CHANNELS 3 Xrotation Yrotation Zrotation
		JOINT newVegas:Spine1
		{
			OFFSET 0.000000 11.900002 -1.516600
			CHANNELS 3 Xrotation Yrotation Zrotation
			JOINT newVegas:Spine2
			{
				OFFSET 0.000000 13.600006 -2.842500
				CHANNELS 3 Xrotation Yrotation Zrotation
				JOINT newVegas:Neck
				{
					OFFSET 0.000000 9.624100 -2.890100
					CHANNELS 3 Xrotation Yrotation Zrotation
					JOINT newVegas:Head
					{
						OFFSET 0.000000 14.068802 -1.351900
						CHANNELS 3 Xrotation Yrotation Zrotation
						JOINT newVegas:Hair_Back
						{
							OFFSET 0.000000 3.231903 -17.524799
							CHANNELS 3 Xrotation Yrotation Zrotation
							End Site
							{
								OFFSET 0.000000 19.849884 0.000000
							}
						}
						JOINT newVegas:Hair_Front
						{
							OFFSET 0.000000 31.260406 4.573800
							CHANNELS 3 Xrotation Yrotation Zrotation
							JOINT newVegas:Hair_Front1
							{
								OFFSET 0.000000 2.284103 11.993300
								CHANNELS 3 Xrotation Yrotation Zrotation
								JOINT newVegas:Hair_Front2
								{
									OFFSET 0.000000 2.284103 11.993300
									CHANNELS 3 Xrotation Yrotation Zrotation
									End Site
									{
										OFFSET 0.000000 12.208862 0.000000
									}
								}
							}
						}
						JOINT newVegas:Jowel
						{
							OFFSET 0.000000 -7.458206 6.864100
							CHANNELS 3 Xrotation Yrotation Zrotation
							End Site
							{
								OFFSET 0.000000 19.849884 0.000000
							}
						}
					}
				}
				JOINT newVegas:LeftShoulder
				{
					OFFSET 15.263000 10.923401 -0.547700
					CHANNELS 3 Xrotation Yrotation Zrotation
					JOINT newVegas:LeftArm
					{
						OFFSET 25.438599 -2.830597 -13.032500
						CHANNELS 3 Xrotation Yrotation Zrotation
						JOINT newVegas:LeftForeArm
						{
							OFFSET 29.960503 0.000000 0.000000
							CHANNELS 3 Xrotation Yrotation Zrotation
							JOINT newVegas:LeftHand
							{
								OFFSET 27.849251 0.000000 0.000000
								CHANNELS 3 Xrotation Yrotation Zrotation
								JOINT newVegas:LeftHandThumb1
								{
									OFFSET 4.487587 -3.305161 6.305391
									CHANNELS 3 Xrotation Yrotation Zrotation
									JOINT newVegas:LeftHandThumb2
									{
										OFFSET 5.480453 -3.164139 3.164143
										CHANNELS 3 Xrotation Yrotation Zrotation
										JOINT newVegas:LeftHandThumb3
										{
											OFFSET 5.159721 -2.978973 2.978967
											CHANNELS 3 Xrotation Yrotation Zrotation
											End Site
											{
												OFFSET 2.494507 5.926697 1.738678
											}
										}
									}
								}
								JOINT newVegas:LeftHandIndex1
								{
									OFFSET 18.578728 -0.527832 5.208049
									CHANNELS 3 Xrotation Yrotation Zrotation
									JOINT newVegas:LeftHandIndex2
									{
										OFFSET 3.192009 0.000000 0.000000
										CHANNELS 3 Xrotation Yrotation Zrotation
										JOINT newVegas:LeftHandIndex3
										{
											OFFSET 3.835129 0.000000 0.000000
											CHANNELS 3 Xrotation Yrotation Zrotation
											End Site
											{
												OFFSET -0.034599 3.816971 0.371180
											}
										}
									}
								}
								JOINT newVegas:LeftHandMiddle1
								{
									OFFSET 18.476105 0.000000 0.000000
									CHANNELS 3 Xrotation Yrotation Zrotation
									JOINT newVegas:LeftHandMiddle2
									{
										OFFSET 3.324875 0.000000 0.000000
										CHANNELS 3 Xrotation Yrotation Zrotation
										JOINT newVegas:LeftHandMiddle3
										{
											OFFSET 4.596550 0.000000 0.000000
											CHANNELS 3 Xrotation Yrotation Zrotation
											End Site
											{
												OFFSET 0.057701 4.578827 0.399218
											}
										}
									}
								}
								JOINT newVegas:LeftHandRing1
								{
									OFFSET 17.732719 0.121887 -4.201567
									CHANNELS 3 Xrotation Yrotation Zrotation
									JOINT newVegas:LeftHandRing2
									{
										OFFSET 2.733170 0.000000 0.000000
										CHANNELS 3 Xrotation Yrotation Zrotation
										JOINT newVegas:LeftHandRing3
										{
											OFFSET 3.178268 0.000000 0.000000
											CHANNELS 3 Xrotation Yrotation Zrotation
											End Site
											{
												OFFSET 0.119102 3.170624 0.185394
											}
										}
									}
								}
								JOINT newVegas:LeftHandPinky1
								{
									OFFSET 15.989624 -0.606689 -7.535461
									CHANNELS 3 Xrotation Yrotation Zrotation
									JOINT newVegas:LeftHandPinky2
									{
										OFFSET 2.538986 0.000000 0.000000
										CHANNELS 3 Xrotation Yrotation Zrotation
										JOINT newVegas:LeftHandPinky3
										{
											OFFSET 2.593102 0.000000 0.000000
											CHANNELS 3 Xrotation Yrotation Zrotation
											End Site
											{
												OFFSET -0.150902 2.584198 0.152708
											}
										}
									}
								}
							}
							JOINT newVegas:Left_Sleeve
							{
								OFFSET 0.267448 -0.649796 0.577675
								CHANNELS 3 Xrotation Yrotation Zrotation
								End Site
								{
									OFFSET 0.000000 15.991241 0.000000
								}
							}
							JOINT newVegas:Left_CapeC
							{
								OFFSET 15.715958 -8.608795 -6.935905
								CHANNELS 3 Xrotation Yrotation Zrotation
								JOINT newVegas:Left_CapeC1
								{
									OFFSET 0.000000 -8.688499 0.000000
									CHANNELS 3 Xrotation Yrotation Zrotation
									End Site
									{
										OFFSET 0.000000 8.688499 0.000000
									}
								}
							}
						}
						JOINT newVegas:Left_CapeB
						{
							OFFSET 26.118385 -8.608795 -7.079235
							CHANNELS 3 Xrotation Yrotation Zrotation
							JOINT newVegas:Left_CapeB1
							{
								OFFSET 0.000000 -8.688499 0.000000
								CHANNELS 3 Xrotation Yrotation Zrotation
								End Site
								{
									OFFSET 0.000000 8.688499 0.000000
								}
							}
						}
						JOINT newVegas:Left_CapeA
						{
							OFFSET 5.115639 -8.608795 -10.395809
							CHANNELS 3 Xrotation Yrotation Zrotation
							JOINT newVegas:Left_CapeA1
							{
								OFFSET 0.000000 -8.688499 0.000000
								CHANNELS 3 Xrotation Yrotation Zrotation
								End Site
								{
									OFFSET 0.000000 8.688499 0.000000
								}
							}
						}
					}
				}
				JOINT newVegas:RightShoulder
				{
					OFFSET -15.263000 10.923401 -0.547700
					CHANNELS 3 Xrotation Yrotation Zrotation
					JOINT newVegas:RightArm
					{
						OFFSET -25.438599 -2.830597 -13.032500
						CHANNELS 3 Xrotation Yrotation Zrotation
						JOINT newVegas:RightForeArm
						{
							OFFSET -29.960503 0.000000 0.000000
							CHANNELS 3 Xrotation Yrotation Zrotation
							JOINT newVegas:RightHand
							{
								OFFSET -27.849251 0.000000 0.000000
								CHANNELS 3 Xrotation Yrotation Zrotation
								JOINT newVegas:RightHandThumb1
								{
									OFFSET -4.487587 -3.305161 6.305391
									CHANNELS 3 Xrotation Yrotation Zrotation
									JOINT newVegas:RightHandThumb2
									{
										OFFSET -5.480453 -3.164139 3.164143
										CHANNELS 3 Xrotation Yrotation Zrotation
										JOINT newVegas:RightHandThumb3
										{
											OFFSET -5.159721 -2.978973 2.978967
											CHANNELS 3 Xrotation Yrotation Zrotation
											End Site
											{
												OFFSET -2.494507 5.926697 1.738678
											}
										}
									}
								}
								JOINT newVegas:RightHandIndex1
								{
									OFFSET -18.578728 -0.527832 5.208049
									CHANNELS 3 Xrotation Yrotation Zrotation
									JOINT newVegas:RightHandIndex2
									{
										OFFSET -3.192009 0.000000 0.000000
										CHANNELS 3 Xrotation Yrotation Zrotation
										JOINT newVegas:RightHandIndex3
										{
											OFFSET -3.835129 0.000000 0.000000
											CHANNELS 3 Xrotation Yrotation Zrotation
											End Site
											{
												OFFSET 0.034599 3.816971 0.371180
											}
										}
									}
								}
								JOINT newVegas:RightHandMiddle1
								{
									OFFSET -18.476105 0.000000 0.000000
									CHANNELS 3 Xrotation Yrotation Zrotation
									JOINT newVegas:RightHandMiddle2
									{
										OFFSET -3.324875 0.000000 0.000000
										CHANNELS 3 Xrotation Yrotation Zrotation
										JOINT newVegas:RightHandMiddle3
										{
											OFFSET -4.596550 0.000000 0.000000
											CHANNELS 3 Xrotation Yrotation Zrotation
											End Site
											{
												OFFSET -0.057701 4.578827 0.399218
											}
										}
									}
								}
								JOINT newVegas:RightHandRing1
								{
									OFFSET -17.732719 0.121887 -4.201567
									CHANNELS 3 Xrotation Yrotation Zrotation
									JOINT newVegas:RightHandRing2
									{
										OFFSET -2.733170 0.000000 0.000000
										CHANNELS 3 Xrotation Yrotation Zrotation
										JOINT newVegas:RightHandRing3
										{
											OFFSET -3.178268 0.000000 0.000000
											CHANNELS 3 Xrotation Yrotation Zrotation
											End Site
											{
												OFFSET -0.119102 3.170624 0.185394
											}
										}
									}
								}
								JOINT newVegas:RightHandPinky1
								{
									OFFSET -15.989624 -0.606689 -7.535461
									CHANNELS 3 Xrotation Yrotation Zrotation
									JOINT newVegas:RightHandPinky2
									{
										OFFSET -2.538986 0.000000 0.000000
										CHANNELS 3 Xrotation Yrotation Zrotation
										JOINT newVegas:RightHandPinky3
										{
											OFFSET -2.593102 0.000000 0.000000
											CHANNELS 3 Xrotation Yrotation Zrotation
											End Site
											{
												OFFSET 0.150902 2.584198 0.152708
											}
										}
									}
								}
							}
							JOINT newVegas:Right_CapeC
							{
								OFFSET -15.715958 -8.608795 -6.935905
								CHANNELS 3 Xrotation Yrotation Zrotation
								JOINT newVegas:Right_CapeC1
								{
									OFFSET 0.000000 -8.688499 0.000000
									CHANNELS 3 Xrotation Yrotation Zrotation
									End Site
									{
										OFFSET 0.000000 8.688499 0.000000
									}
								}
							}
							JOINT newVegas:Right_Sleeve
							{
								OFFSET -0.267448 -0.649994 0.577675
								CHANNELS 3 Xrotation Yrotation Zrotation
								End Site
								{
									OFFSET 0.000000 15.991302 0.000000
								}
							}
						}
						JOINT newVegas:Right_CapeA
						{
							OFFSET -5.115540 -8.608795 -10.395824
							CHANNELS 3 Xrotation Yrotation Zrotation
							JOINT newVegas:Right_CapeA1
							{
								OFFSET 0.000000 -8.688499 0.000000
								CHANNELS 3 Xrotation Yrotation Zrotation
								End Site
								{
									OFFSET 0.000000 8.688499 0.000000
								}
							}
						}
						JOINT newVegas:Right_CapeB
						{
							OFFSET -26.118187 -8.608795 -7.079266
							CHANNELS 3 Xrotation Yrotation Zrotation
							JOINT newVegas:Right_CapeB1
							{
								OFFSET 0.000000 -8.688499 0.000000
								CHANNELS 3 Xrotation Yrotation Zrotation
								End Site
								{
									OFFSET 0.000000 8.688499 0.000000
								}
							}
						}
					}
				}
				JOINT newVegas:Left_Collar
				{
					OFFSET 18.625099 8.655502 8.828100
					CHANNELS 3 Xrotation Yrotation Zrotation
					JOINT newVegas:Left_Collar1
					{
						OFFSET 14.783401 10.540405 -1.259500
						CHANNELS 3 Xrotation Yrotation Zrotation
						End Site
						{
							OFFSET 0.000000 18.199875 0.000000
						}
					}
				}
				JOINT newVegas:Collar_Back
				{
					OFFSET 0.000000 15.630707 -20.132601
					CHANNELS 3 Xrotation Yrotation Zrotation
					End Site
					{
						OFFSET 0.000000 22.523010 0.000000
					}
				}
				JOINT newVegas:Left_Peck
				{
					OFFSET 17.239599 -5.132599 25.482599
					CHANNELS 3 Xrotation Yrotation Zrotation
					End Site
					{
						OFFSET 0.000000 22.523010 0.000000
					}
				}
				JOINT newVegas:Right_Peck
				{
					OFFSET -17.239599 -5.132202 25.482599
					CHANNELS 3 Xrotation Yrotation Zrotation
					End Site
					{
						OFFSET 0.000000 22.523010 0.000000
					}
				}
				JOINT newVegas:Right_Collar
				{
					OFFSET -18.625099 8.655792 8.828100
					CHANNELS 3 Xrotation Yrotation Zrotation
					JOINT newVegas:Right_Collar1
					{
						OFFSET -14.783401 10.539993 -1.259500
						CHANNELS 3 Xrotation Yrotation Zrotation
						End Site
						{
							OFFSET 0.000000 18.199631 0.000000
						}
					}
				}
			}
		}
		JOINT newVegas:Belly
		{
			OFFSET 0.000000 -6.540398 9.014299
			CHANNELS 3 Xrotation Yrotation Zrotation
			End Site
			{
				OFFSET 0.000000 11.566666 0.000000
			}
		}
	}
	JOINT newVegas:ElvisFacialAnim_Joint
	{
		OFFSET 1.000000 -95.330101 -8.825800
		CHANNELS 3 Xrotation Yrotation Zrotation
		End Site
		{
			OFFSET 0.000000 35.315800 0.000000
		}
	}
}
MOTION
Frames: 4
Frame Time: 0.033333
0.983634 38.725777 58.045090 5.013176 10.571681 -2.097726 0.000000 0.000001 -0.000000 -48.658046 -49.893815 22.210833 139.819341 -12.138956 -1.412064 0.737693 11.010977 -28.529577 -0.000000 -0.000003 -0.000002 -0.000000 0.000002 -0.000000 -76.345245 50.352534 4.867098 139.303224 -1.057810 0.227249 8.796112 -2.395864 19.443126 0.000001 0.000002 0.000000 0.000003 0.000001 -0.000002 11.065767 1.552479 -0.473886 13.427631 7.216340 -6.631373 13.416068 7.223601 -6.618458 -3.106424 -1.896349 2.879042 -3.106405 -1.896339 2.879042 -0.000001 0.000001 -0.000001 -3.106421 -1.896336 2.879042 -3.106422 -1.896349 2.879047 -0.000000 0.000000 -0.000001 -0.000001 0.000001 -0.000001 0.555666 -3.744464 -15.649118 -30.630895 -35.182683 -24.977942 0.000000 -149.961407 0.000005 -56.326145 -42.544545 25.911093 5.951230 14.066574 -34.593843 6.205018 21.799160 0.752062 0.000001 0.000002 -0.000004 -4.594165 -11.186056 -59.719404 4.769655 5.750606 -79.331124 0.000001 -0.000001 -0.000001 -3.122428 -1.133080 -32.046903 1.054691 3.355011 -34.894084 -0.000003 0.000001 -0.000002 5.124615 16.868629 -20.103257 1.828324 4.252326 -46.515832 0.000001 -0.000002 0.000000 8.195453 37.446775 -12.315126 4.077402 5.576632 -72.325392 0.000001 0.000002 0.000002 -0.000000 -0.000001 0.000000 -0.000000 -0.000001 0.000000 -0.000001 -0.000001 0.000001 0.000000 -0.000001 -0.000004 0.000000 -0.000001 -0.000006 0.000000 -0.000001 -0.000004 0.000000 -0.000001 -0.000005 0.504189 5.667433 14.555256 -82.224406 -16.792754 18.290314 -0.000048 130.076404 0.000041 -85.791397 -15.018707 19.888845 -1.001649 3.589450 10.754325 10.087151 -16.342496 -3.018178 0.000000 -0.000002 -0.000001 7.310129 17.198488 -20.947533 0.949771 -2.820543 37.213685 0.000002 -0.000001 -0.000000 -0.805347 -0.787900 20.272920 1.878250 -3.738678 53.336134 -0.000004 0.000000 0.000001 6.187615 -10.183747 45.814809 4.351704 -4.647145 86.234888 -0.000001 0.000004 0.000001 1.857759 -27.922455 39.345107 3.908439 -4.596693 80.738512 0.000000 -0.000002 -0.000000 -0.000000 -0.000000 0.000002 0.000003 0.000000 0.000000 0.000000 0.000000 0.000003 -0.000000 0.000003 -0.000001 -0.000001 0.000003 -0.000000 -0.000000 0.000003 -0.000001 -0.000001 0.000003 0.000002 0.000001 0.000002 -0.000001 0.000001 0.000002 -0.000001 0.000001 0.000002 -0.000001 0.000001 0.000002 -0.000001 0.000001 0.000002 -0.000001 0.000001 0.000002 -0.000001 0.000001 0.000002 -0.000001 -0.000002 -0.000000 -0.000000 0.000000 0.000001 -0.000000 
2.189995 35.826286 58.290436 7.965865 9.748250 -2.753669 -0.000000 -0.000000 0.000000 -60.395702 -55.509381 13.137351 141.680786 -16.732435 -1.389629 7.151754 8.237182 -29.791011 -0.000001 -0.000002 -0.000000 0.000001 -0.000001 0.000000 -85.343043 55.486688 9.668945 141.414928 0.977486 0.519815 11.897651 -2.497706 21.998757 -0.000002 -0.000002 -0.000000 0.000001 0.000001 -0.000003 11.602031 1.558350 -1.130701 12.032152 7.817548 -5.040899 12.022428 7.826277 -5.026208 -3.247193 -1.726230 2.642609 -3.247184 -1.726213 2.642600 -0.000000 0.000001 -0.000001 -3.247250 -1.726216 2.642601 -3.247110 -1.726235 2.642610 0.000001 -0.000001 -0.000000 -0.000000 0.000001 -0.000000 0.581055 -3.601081 -15.647772 -30.564738 -34.635876 -26.458594 -0.000002 -150.000011 -0.000001 -56.137537 -44.551698 20.794204 5.951239 14.066576 -34.593853 6.204998 21.799158 0.752069 0.000000 -0.000000 -0.000005 -4.594161 -11.186048 -59.719383 4.769654 5.750611 -79.331117 0.000000 0.000004 0.000001 -3.122418 -1.133080 -32.046923 1.054692 3.355001 -34.894094 -0.000002 -0.000001 -0.000003 5.124635 16.868633 -20.103284 1.828314 4.252316 -46.515811 -0.000000 0.000003 -0.000001 8.195461 37.446772 -12.315136 4.077403 5.576635 -72.325372 -0.000000 -0.000002 -0.000001 -0.000001 -0.000001 0.000002 -0.000001 -0.000001 0.000002 -0.000002 -0.000001 0.000003 0.000000 0.000000 0.000001 0.000000 -0.000000 -0.000003 0.000000 0.000000 0.000001 0.000000 -0.000000 0.000001 0.481877 5.821859 14.514582 -84.514001 -14.910195 19.112807 0.000040 129.435677 -0.000050 -84.321096 -18.799766 19.052449 -1.001525 3.589410 10.754397 10.087123 -16.342334 -3.018172 0.000003 0.000000 0.000001 7.310209 17.198546 -20.947890 0.949740 -2.820515 37.213275 0.000000 0.000003 -0.000001 -0.805348 -0.787869 20.272637 1.878247 -3.738672 53.335991 0.000002 -0.000001 -0.000000 6.187618 -10.183738 45.814720 4.351668 -4.647148 86.234902 0.000001 -0.000001 -0.000000 1.857725 -27.922474 39.345001 3.908452 -4.596712 80.738498 -0.000000 0.000003 0.000000 -0.000000 0.000001 -0.000001 0.000001 -0.000001 0.000001 -0.000000 0.000001 -0.000002 0.000002 -0.000003 0.000001 0.000002 -0.000003 0.000001 0.000002 -0.000003 0.000001 0.000002 -0.000003 0.000003 -0.000000 0.000000 -0.000000 -0.000000 0.000000 -0.000000 -0.000000 0.000000 -0.000000 -0.000000 0.000000 -0.000000 -0.000000 0.000000 -0.000000 -0.000000 0.000000 -0.000000 -0.000000 0.000000 -0.000000 -0.000000 0.000000 -0.000000 -0.000000 -0.000000 0.000000 
2.773433 34.691170 57.673084 11.748301 9.339359 -3.670308 0.000000 0.000000 -0.000000 -71.954950 -56.950025 6.069132 143.035185 -16.447900 -1.193755 10.975149 7.292245 -29.877382 0.000001 -0.000003 -0.000000 -0.000001 -0.000002 -0.000000 -91.835247 54.814239 11.026270 142.216546 -0.850765 0.333570 12.541969 -3.295953 19.776224 -0.000003 -0.000002 -0.000001 -0.000002 0.000002 -0.000002 12.271532 1.899378 -1.805095 10.457125 8.475638 -3.374833 10.453908 8.481029 -3.362114 -3.284062 -1.601536 2.484750 -3.284065 -1.601532 2.484752 0.000001 0.000001 -0.000001 -3.283984 -1.601519 2.484749 -3.284049 -1.601536 2.484749 -0.000001 -0.000000 -0.000000 0.000001 0.000001 -0.000001 0.589704 -3.835536 -15.480637 -32.195627 -33.174143 -28.749263 -0.000002 -150.000011 0.000001 -58.463168 -45.993401 14.397412 5.951236 14.066582 -34.593867 6.204987 21.799150 0.752083 0.000002 0.000001 -0.000001 -4.594166 -11.186043 -59.719424 4.769639 5.750593 -79.331110 -0.000000 0.000002 -0.000000 -3.122420 -1.133076 -32.046950 1.054703 3.355015 -34.894094 0.000002 -0.000003 -0.000002 5.124629 16.868643 -20.103284 1.828327 4.252317 -46.515822 -0.000000 -0.000002 0.000002 8.195453 37.446802 -12.315140 4.077411 5.576633 -72.325372 -0.000003 -0.000005 0.000002 0.000000 0.000000 -0.000001 0.000000 0.000000 -0.000001 -0.000001 0.000000 -0.000000 -0.000000 0.000001 -0.000001 0.000000 0.000001 -0.000002 -0.000000 0.000001 -0.000001 0.000000 0.000001 -0.000001 0.467981 5.948971 14.472587 -86.909280 -13.324084 21.034158 0.000050 129.341762 -0.000042 -82.837825 -22.123019 17.555763 -1.001267 3.589336 10.754571 10.087098 -16.342006 -3.018151 0.000001 -0.000003 -0.000003 7.310480 17.198618 -20.948634 0.949695 -2.820459 37.212435 -0.000001 -0.000001 -0.000000 -0.805339 -0.787805 20.272061 1.878223 -3.738663 53.335738 -0.000001 0.000003 0.000006 6.187573 -10.183751 45.814546 4.351670 -4.647145 86.234902 -0.000002 -0.000001 -0.000003 1.857703 -27.922481 39.344827 3.908425 -4.596707 80.738505 0.000001 0.000005 0.000001 0.000002 0.000001 -0.000001 0.000002 -0.000001 0.000001 0.000002 0.000001 -0.000003 0.000001 -0.000003 0.000003 0.000001 -0.000002 0.000003 0.000001 -0.000003 0.000003 0.000001 -0.000002 0.000004 -0.000001 0.000000 0.000000 -0.000001 0.000000 0.000000 -0.000001 0.000000 0.000000 -0.000001 0.000000 0.000000 -0.000001 0.000000 0.000000 -0.000001 0.000000 0.000000 -0.000001 0.000000 0.000000 -0.000001 -0.000001 0.000000 0.000000 0.000000 -0.000000 
2.925319 34.713081 56.799793 14.469962 9.868229 -4.103101 -0.000000 -0.000001 0.000000 -79.494584 -54.952492 3.118651 143.716155 -12.614365 -0.890050 13.463075 7.368240 -28.590880 0.000001 0.000001 0.000000 -0.000001 -0.000002 -0.000001 -94.173084 49.996787 9.499714 141.716016 -4.797088 -0.181777 13.330539 -4.734601 13.688691 -0.000001 -0.000000 -0.000001 -0.000000 0.000001 -0.000001 12.771612 2.149937 -2.132370 9.323313 8.926410 -2.118450 9.326725 8.926552 -2.104155 -3.222873 -1.565756 2.473382 -3.222880 -1.565768 2.473378 0.000001 -0.000000 -0.000000 -3.222866 -1.565767 2.473381 -3.222795 -1.565787 2.473385 0.000002 0.000001 -0.000000 0.000001 -0.000000 -0.000000 0.544427 -4.620956 -15.167234 -34.794186 -32.102620 -30.116958 -0.000003 -149.205605 0.000002 -62.959769 -45.951242 9.803282 5.951248 14.066569 -34.593853 6.204999 21.799141 0.752076 -0.000001 0.000002 -0.000004 -4.594153 -11.186057 -59.719424 4.769652 5.750605 -79.331131 0.000001 0.000001 0.000000 -3.122409 -1.133073 -32.046927 1.054709 3.354996 -34.894101 0.000000 0.000002 0.000003 5.124632 16.868633 -20.103291 1.828308 4.252314 -46.515805 0.000002 0.000005 -0.000001 8.195463 37.446806 -12.315140 4.077426 5.576606 -72.325399 -0.000001 0.000000 -0.000001 0.000000 -0.000001 0.000002 0.000000 -0.000001 0.000002 -0.000000 -0.000001 0.000002 -0.000000 0.000001 -0.000002 -0.000000 0.000001 -0.000005 -0.000000 0.000001 -0.000002 -0.000000 0.000001 -0.000002 0.481768 5.985121 14.409049 -88.436258 -13.944489 23.800035 -0.000016 129.963282 0.000027 -81.804042 -25.319293 16.609905 -1.001426 3.589363 10.754458 10.087106 -16.342247 -3.018177 0.000003 -0.000002 -0.000001 7.310289 17.198544 -20.948089 0.949712 -2.820507 37.213036 -0.000001 -0.000002 0.000001 -0.805347 -0.787868 20.272478 1.878244 -3.738661 53.335930 0.000000 -0.000001 -0.000001 6.187595 -10.183763 45.814672 4.351682 -4.647153 86.234902 -0.000002 0.000001 -0.000001 1.857733 -27.922476 39.344950 3.908429 -4.596703 80.738526 -0.000000 0.000002 -0.000000 -0.000002 0.000001 -0.000001 0.000000 0.000001 0.000000 -0.000002 0.000001 -0.000001 -0.000002 0.000002 -0.000003 -0.000002 0.000002 -0.000003 -0.000002 0.000002 -0.000003 -0.000002 0.000002 -0.000003 -0.000002 -0.000000 -0.000000 -0.000002 -0.000000 -0.000000 -0.000002 -0.000000 -0.000000 -0.000002 -0.000000 -0.000000 -0.000002 -0.000000 -0.000000 -0.000002 -0.000000 -0.000000 -0.000002 -0.000000 -0.000000 -0.000001 -0.000001 -0.000000 -0.000000 -0.000001 0.000000 
